<svg width="121" height="40" viewBox="0 0 121 40" fill="none" xmlns="http://www.w3.org/2000/svg">
<g clip-path="url(#clip0_44_260)">
<path d="M23.8144 6.96484H-0.199219V13.4839H23.8144V6.96484Z" fill="#1ECAD3"/>
<path d="M23.8144 19.998H-0.199219V26.5171H23.8144V19.998Z" fill="#1ECAD3"/>
<path d="M23.8144 33.0352H-0.199219V39.5542H23.8144V33.0352Z" fill="#1ECAD3"/>
<path d="M47.8222 6.96436H23.8086V0.445312H45.225L47.8222 6.96436Z" fill="#1ECAD3"/>
<path d="M47.8222 26.5156H23.8086V33.0347H45.225L47.8222 26.5156Z" fill="#1ECAD3"/>
<path d="M46.1953 19.9976H23.8086V13.4844H46.1953L43.3948 16.7381L46.1953 19.9976Z" fill="#1ECAD3"/>
<path d="M78.1527 19.8857H66.5904C66.7066 23.3718 69.0307 25.446 72.0346 25.446C73.8671 25.3674 75.666 24.927 77.3277 24.1504V26.3582C75.6256 27.1976 73.7522 27.6311 71.8545 27.6249C66.9449 27.6249 64.1211 24.2085 64.1211 19.6474C64.1211 14.7959 67.2935 11.9141 71.4129 11.9141C75.7415 11.9141 78.1818 14.9993 78.1818 19.0897C78.1891 19.3553 78.1794 19.6212 78.1527 19.8857ZM66.7647 17.9451H75.666C75.652 17.4132 75.5315 16.8895 75.3116 16.4049C75.0918 15.9204 74.777 15.4849 74.3859 15.1241C73.9948 14.7634 73.5353 14.4847 73.0347 14.3046C72.534 14.1244 72.0023 14.0465 71.471 14.0755C69.0888 14.0755 67.3283 15.528 66.7647 17.9392V17.9451Z" fill="black"/>
<path d="M81.0615 26.4688V24.2319C82.532 25.0088 84.1632 25.4325 85.8259 25.4695C87.7374 25.4695 89.3585 24.6444 89.3585 23.2616C89.3585 22.0995 88.4463 21.5185 87.2378 21.2048L84.6232 20.4669C82.0318 19.7638 80.9453 18.352 80.9453 16.115C80.9453 13.4656 83.5309 11.9084 86.5638 11.9084C88.0292 11.8752 89.4783 12.2215 90.7704 12.9136V15.1505C89.4301 14.4347 87.9322 14.0652 86.4127 14.0756C84.9137 14.0756 83.4146 14.6973 83.4146 16.1673C83.4146 17.1376 84.1235 17.7535 85.5296 18.137L87.8536 18.8168C90.8227 19.5489 91.793 21.0828 91.793 23.2558C91.793 26.1144 89.1726 27.6134 85.6458 27.6134C84.0465 27.6169 82.4714 27.2236 81.0615 26.4688Z" fill="black"/>
<path d="M103.594 25.1151V27.2648C102.733 27.5025 101.844 27.6218 100.95 27.6193C97.0925 27.6193 95.3262 24.8827 95.3262 21.2629V9.75869L97.3888 8.01562H97.7432V12.2513H103.245V14.3139H97.7432V21.2048C97.7432 23.3836 98.5915 25.4404 101.299 25.4404C102.075 25.4314 102.846 25.322 103.594 25.1151Z" fill="black"/>
<path d="M117.04 12.2578H119.451V27.2656H117.04V25.2088C116.426 25.9662 115.65 26.5762 114.769 26.9935C113.888 27.4109 112.925 27.625 111.95 27.62C108.743 27.62 106.477 25.4702 106.477 21.6471V12.2578H108.888V21.6297C108.888 24.1571 110.393 25.4237 112.508 25.4237C113.441 25.3776 114.347 25.094 115.14 24.5999C115.933 24.1057 116.587 23.4174 117.04 22.6V12.2578Z" fill="black"/>
</g>
<defs>
<clipPath id="clip0_44_260">
<rect width="121" height="40" fill="white"/>
</clipPath>
</defs>
</svg>
